<svg width="192" height="35" viewBox="0 0 192 35" fill="none" xmlns="http://www.w3.org/2000/svg">
<path d="M17.1604 33.5698C26.2307 33.5698 33.5836 26.22 33.5836 17.1536C33.5836 8.08712 26.2307 0.737305 17.1604 0.737305C8.09019 0.737305 0.737305 8.08712 0.737305 17.1536C0.737305 26.22 8.09019 33.5698 17.1604 33.5698Z" fill="#F0F0F0"/>
<path fill-rule="evenodd" clip-rule="evenodd" d="M17.1594 1.03813C8.25626 1.03813 1.03887 8.2525 1.03887 17.1519C1.03887 26.0513 8.25626 33.2656 17.1594 33.2656C26.0625 33.2656 33.2799 26.0513 33.2799 17.1519C33.2799 8.2525 26.0625 1.03813 17.1594 1.03813ZM0.433594 17.1519C0.433594 7.91836 7.92198 0.433105 17.1594 0.433105C26.3968 0.433105 33.8851 7.91836 33.8851 17.1519C33.8851 26.3854 26.3968 33.8707 17.1594 33.8707C7.92198 33.8707 0.433594 26.3854 0.433594 17.1519Z" fill="#F0F0F0"/>
<path d="M17.1594 34.3048C26.6363 34.3048 34.3188 26.6254 34.3188 17.1524C34.3188 7.67939 26.6363 0 17.1594 0C7.68252 0 0 7.67939 0 17.1524C0 26.6254 7.68252 34.3048 17.1594 34.3048Z" fill="#F0F0F0"/>
<path d="M32.8172 18.4136C32.5753 19.2461 32.3834 20.1158 32.1923 20.8495C31.8264 22.2538 31.1858 23.6016 30.1943 24.6616C28.2554 26.7346 25.4232 25.9946 23.064 27.0855C20.1383 28.4385 18.3923 31.9694 14.9596 32.3173C12.4698 32.5696 9.95781 31.385 7.93998 30.0146C-7.78995 19.3316 6.54295 -5.13734 23.6025 2.71121C24.7844 2.71121 25.3176 3.39091 26.4233 4.36272C26.9353 4.813 26.2889 4.34213 27.0949 4.87921C15.9209 -4.16259 -0.940226 5.31488 1.47302 19.8369C1.76165 21.5739 2.42972 23.0909 3.23851 24.6438C8.2076 34.1848 20.8309 36.0065 28.1963 28.5375C29.5479 27.167 30.7633 25.8083 31.5276 24.0261C32.2912 22.2455 32.8158 20.3714 32.8172 18.4136Z" fill="#333333"/>
<path fill-rule="evenodd" clip-rule="evenodd" d="M17.1592 1.64262C8.59111 1.64262 1.64531 8.58551 1.64531 17.15C1.64531 25.7145 8.59111 32.6575 17.1592 32.6575C25.7273 32.6575 32.6731 25.7145 32.6731 17.15C32.6731 8.58552 25.7273 1.64262 17.1592 1.64262ZM1.04004 17.15C1.04004 8.25137 8.25683 1.0376 17.1592 1.0376C26.0616 1.0376 33.2784 8.25137 33.2784 17.15C33.2784 26.0487 26.0616 33.2625 17.1592 33.2625C8.25683 33.2625 1.04004 26.0487 1.04004 17.15Z" fill="#333333"/>
<path fill-rule="evenodd" clip-rule="evenodd" d="M29.41 6.51713C26.4425 6.51713 24.0369 8.92172 24.0369 11.8879C24.0369 14.8541 26.4425 17.2587 29.41 17.2587C32.3774 17.2587 34.783 14.8541 34.783 11.8879C34.783 8.92172 32.3774 6.51713 29.41 6.51713ZM23.4316 11.8879C23.4316 8.58758 26.1082 5.91211 29.41 5.91211C32.7117 5.91211 35.3883 8.58758 35.3883 11.8879C35.3883 15.1883 32.7117 17.8638 29.41 17.8638C26.1082 17.8638 23.4316 15.1883 23.4316 11.8879Z" fill="#F0F0F0"/>
<path fill-rule="evenodd" clip-rule="evenodd" d="M29.4111 6.1924C26.2638 6.1924 23.7123 8.74246 23.7123 11.8881C23.7123 15.0338 26.2638 17.5838 29.4111 17.5838C32.5585 17.5838 35.11 15.0338 35.11 11.8881C35.11 8.74246 32.5585 6.1924 29.4111 6.1924ZM23.0703 11.8881C23.0703 8.3881 25.9092 5.55078 29.4111 5.55078C32.9131 5.55078 35.752 8.3881 35.752 11.8881C35.752 15.3881 32.9131 18.2255 29.4111 18.2255C25.9092 18.2255 23.0703 15.3881 23.0703 11.8881Z" fill="#F0F0F0"/>
<path d="M29.4133 16.6527C32.0464 16.6527 34.1811 14.5189 34.1811 11.8869C34.1811 9.25481 32.0464 7.12109 29.4133 7.12109C26.7801 7.12109 24.6455 9.25481 24.6455 11.8869C24.6455 14.5189 26.7801 16.6527 29.4133 16.6527Z" fill="#F0F0F0"/>
<path fill-rule="evenodd" clip-rule="evenodd" d="M29.4043 7.72713C27.1054 7.72713 25.2418 9.58997 25.2418 11.8879C25.2418 14.1858 27.1054 16.0486 29.4043 16.0486C31.7032 16.0486 33.5668 14.1858 33.5668 11.8879C33.5668 9.58997 31.7032 7.72713 29.4043 7.72713ZM24.0312 11.8879C24.0312 8.92168 26.4368 6.51709 29.4043 6.51709C32.3717 6.51709 34.7773 8.92168 34.7773 11.8879C34.7773 14.8541 32.3717 17.2587 29.4043 17.2587C26.4368 17.2587 24.0312 14.8541 24.0312 11.8879Z" fill="#333333"/>
<path d="M54.2017 15.356C54.2017 15.8267 54.0841 16.2347 53.8487 16.5798C53.7703 16.7054 53.5898 16.9093 53.3074 17.1918C53.025 17.4742 52.8053 17.6782 52.6484 17.8037C52.2561 18.1018 51.7933 18.2509 51.2598 18.2509H46.2703V24.4878H44.9052V10.3664H51.2598C51.7933 10.3664 52.2561 10.5155 52.6484 10.8136C52.8053 10.9391 53.025 11.151 53.3074 11.4491C53.5898 11.7315 53.7703 11.9355 53.8487 12.061C54.0841 12.4062 54.2017 12.8141 54.2017 13.2849V15.356ZM52.8367 15.3089V13.3319C52.8367 13.128 52.821 12.9946 52.7896 12.9318C52.6798 12.7279 52.5072 12.5082 52.2718 12.2728C52.0365 12.0375 51.8247 11.8649 51.6364 11.755C51.5579 11.708 51.4245 11.6844 51.2363 11.6844H46.2703V16.9329H51.2363C51.3932 16.9329 51.5265 16.9015 51.6364 16.8387C51.8403 16.7289 52.06 16.5641 52.2954 16.3445C52.5307 16.1091 52.6955 15.8973 52.7896 15.709C52.821 15.6463 52.8367 15.5129 52.8367 15.3089ZM64.9448 24.4878H63.6739L63.4621 23.311C63.1797 23.6091 62.8815 23.8759 62.5677 24.1112C62.1127 24.4407 61.7283 24.6055 61.4145 24.6055H59.3434C58.7785 24.6055 58.2999 24.4564 57.9077 24.1583C57.4997 23.8131 57.1545 23.4444 56.8721 23.0521C56.6368 22.7069 56.5191 22.2911 56.5191 21.8047V21.334C56.5191 20.8633 56.6368 20.4475 56.8721 20.0866C57.1545 19.6944 57.4997 19.3257 57.9077 18.9805C58.2999 18.6824 58.7785 18.5333 59.3434 18.5333H63.4385V17.0976C63.4385 16.9407 63.4229 16.8152 63.3915 16.7211C63.1247 16.2347 62.7482 15.8502 62.2618 15.5678C62.1519 15.505 62.0107 15.4737 61.8381 15.4737H59.6258C59.4689 15.4737 59.3355 15.505 59.2257 15.5678C58.8334 15.7875 58.4568 16.1797 58.096 16.7446L56.8721 16.3445C57.029 16.0934 57.1467 15.913 57.2252 15.8032C57.5233 15.3638 57.8763 14.9873 58.2843 14.6735C58.6608 14.391 59.1315 14.2498 59.6964 14.2498H61.8617C62.4422 14.2498 62.9286 14.3989 63.3209 14.697C63.619 14.8853 63.972 15.254 64.38 15.8032C64.5996 16.1013 64.7095 16.5249 64.7095 17.0741V22.8168L64.9448 24.4878ZM61.6734 23.311C61.9401 23.1698 62.2618 22.958 62.6383 22.6756C63.0306 22.3931 63.2973 22.1264 63.4385 21.8753V19.7336H59.3669C59.1943 19.7336 59.0531 19.765 58.9432 19.8277C58.4882 20.0788 58.1273 20.4554 57.8606 20.9575C57.8135 21.0516 57.79 21.1771 57.79 21.334V21.8047C57.79 21.9616 57.8135 22.0872 57.8606 22.1813C58.1117 22.652 58.4725 23.0207 58.9432 23.2875C59.0531 23.3502 59.1943 23.3816 59.3669 23.3816H61.3439C61.4694 23.3816 61.5792 23.3581 61.6734 23.311ZM69.669 24.4878H68.3981C68.3824 24.3937 68.3432 24.1897 68.2804 23.8759C68.2177 23.5621 68.1863 23.3267 68.1863 23.1698V10.3664H69.4572V22.8874C69.4572 23.0757 69.4886 23.3581 69.5514 23.7347C69.6141 24.1112 69.6533 24.3623 69.669 24.4878ZM80.7348 24.4878H79.4639L79.2521 23.311C78.9696 23.6091 78.6715 23.8759 78.3577 24.1112C77.9027 24.4407 77.5183 24.6055 77.2045 24.6055H75.1333C74.5685 24.6055 74.0899 24.4564 73.6977 24.1583C73.2897 23.8131 72.9445 23.4444 72.6621 23.0521C72.4267 22.7069 72.3091 22.2911 72.3091 21.8047V21.334C72.3091 20.8633 72.4267 20.4475 72.6621 20.0866C72.9445 19.6944 73.2897 19.3257 73.6977 18.9805C74.0899 18.6824 74.5685 18.5333 75.1333 18.5333H79.2285V17.0976C79.2285 16.9407 79.2128 16.8152 79.1814 16.7211C78.9147 16.2347 78.5381 15.8502 78.0517 15.5678C77.9419 15.505 77.8007 15.4737 77.6281 15.4737H75.4158C75.2589 15.4737 75.1255 15.505 75.0157 15.5678C74.6234 15.7875 74.2468 16.1797 73.8859 16.7446L72.6621 16.3445C72.819 16.0934 72.9367 15.913 73.0151 15.8032C73.3132 15.3638 73.6663 14.9873 74.0742 14.6735C74.4508 14.391 74.9215 14.2498 75.4864 14.2498H77.6516C78.2322 14.2498 78.7186 14.3989 79.1108 14.697C79.409 14.8853 79.762 15.254 80.1699 15.8032C80.3896 16.1013 80.4994 16.5249 80.4994 17.0741V22.8168L80.7348 24.4878ZM77.4634 23.311C77.7301 23.1698 78.0517 22.958 78.4283 22.6756C78.8206 22.3931 79.0873 22.1264 79.2285 21.8753V19.7336H75.1569C74.9843 19.7336 74.8431 19.765 74.7332 19.8277C74.2782 20.0788 73.9173 20.4554 73.6506 20.9575C73.6035 21.0516 73.58 21.1771 73.58 21.334V21.8047C73.58 21.9616 73.6035 22.0872 73.6506 22.1813C73.9016 22.652 74.2625 23.0207 74.7332 23.2875C74.8431 23.3502 74.9843 23.3816 75.1569 23.3816H77.1339C77.2594 23.3816 77.3692 23.3581 77.4634 23.311ZM89.1776 15.5913H86.0709V21.6165C86.0709 21.8204 86.0945 21.9695 86.1415 22.0636C86.3926 22.55 86.7456 22.9188 87.2006 23.1698C87.3105 23.2326 87.4674 23.2639 87.6714 23.2639H89.1541V24.4878H87.6478C87.083 24.4878 86.6044 24.3387 86.2122 24.0406C85.8827 23.8053 85.5296 23.4287 85.1531 22.9109C84.9177 22.5657 84.8 22.1499 84.8 21.6635V15.5913H83.129V14.3675H84.8V10.3664H86.0709V14.3675H89.1776V15.5913ZM93.3414 24.4878H92.0705V14.3675H93.3414V24.4878ZM93.6003 12.061H91.8116V10.2488H93.6003V12.061ZM104.779 24.4878H103.508V17.1212C103.508 16.9172 103.492 16.7838 103.461 16.7211C103.194 16.2347 102.817 15.8502 102.331 15.5678C102.221 15.505 102.08 15.4737 101.907 15.4737H100.236C100.111 15.4737 100.001 15.4972 99.9069 15.5443C99.0283 16.015 98.4399 16.4857 98.1417 16.9564V24.4878H96.8708V16.0385L96.7061 14.3675H97.977L98.1182 15.5443C98.432 15.1991 98.7223 14.9324 98.989 14.7441C99.444 14.4146 99.8363 14.2498 100.166 14.2498H101.931C102.512 14.2498 102.998 14.3989 103.39 14.697C103.72 14.9324 104.073 15.3089 104.449 15.8267C104.669 16.1562 104.779 16.572 104.779 17.0741V24.4878ZM114.745 22.1342L114.768 22.0872L116.016 22.5108C115.984 22.5736 115.875 22.7462 115.686 23.0286C115.31 23.5464 114.957 23.9229 114.627 24.1583C114.235 24.4564 113.756 24.6055 113.191 24.6055H110.791C110.21 24.6055 109.724 24.4564 109.332 24.1583C109.002 23.9229 108.649 23.5464 108.273 23.0286C108.037 22.6834 107.919 22.2676 107.919 21.7812V17.0741C107.919 16.5877 108.037 16.1719 108.273 15.8267C108.649 15.3089 109.002 14.9324 109.332 14.697C109.724 14.3989 110.21 14.2498 110.791 14.2498H113.144C113.725 14.2498 114.211 14.3989 114.604 14.697C114.933 14.9324 115.286 15.3089 115.663 15.8267C115.882 16.1562 115.992 16.572 115.992 17.0741V19.969H109.19V21.7341C109.19 21.9067 109.214 22.0401 109.261 22.1342C109.528 22.6363 109.896 23.0207 110.367 23.2875C110.477 23.3502 110.61 23.3816 110.767 23.3816H113.239C113.411 23.3816 113.552 23.3502 113.662 23.2875C114.102 23.0364 114.462 22.652 114.745 22.1342ZM109.261 16.7211C109.214 16.8152 109.19 16.9486 109.19 17.1212V18.7686H114.721V17.1212C114.721 16.9172 114.706 16.7838 114.674 16.7211C114.407 16.2347 114.031 15.8502 113.544 15.5678C113.435 15.505 113.293 15.4737 113.121 15.4737H110.791C110.634 15.4737 110.501 15.505 110.391 15.5678C109.904 15.8502 109.528 16.2347 109.261 16.7211ZM134.497 10.3664L130.025 24.4878H127.907L123.412 10.3664H124.847L128.801 23.0286H129.131L133.061 10.3664H134.497ZM138.321 24.4878H137.05V14.3675H138.321V24.4878ZM138.58 12.061H136.791V10.2488H138.58V12.061ZM149.617 21.8753C149.617 22.3617 149.499 22.7775 149.264 23.1227C148.919 23.6091 148.597 23.9543 148.299 24.1583C147.907 24.4564 147.428 24.6055 146.864 24.6055H144.039C143.474 24.6055 142.996 24.4564 142.604 24.1583C142.29 23.9229 141.945 23.5542 141.568 23.0521C141.364 22.7226 141.254 22.5422 141.239 22.5108L142.462 22.0872C142.713 22.6049 143.082 23.0051 143.569 23.2875C143.678 23.3502 143.82 23.3816 143.992 23.3816H146.84C146.997 23.3816 147.13 23.3502 147.24 23.2875C147.695 23.0364 148.04 22.6834 148.276 22.2284C148.323 22.1342 148.346 22.0009 148.346 21.8283V20.981C148.346 20.7456 148.26 20.5495 148.087 20.3926C147.915 20.2357 147.703 20.1416 147.452 20.1102L143.569 19.8277C142.988 19.7807 142.502 19.5532 142.109 19.1452C141.717 18.7373 141.521 18.2509 141.521 17.686V16.9799C141.521 16.4935 141.639 16.0777 141.874 15.7326C142.219 15.2462 142.541 14.901 142.839 14.697C143.231 14.3989 143.71 14.2498 144.275 14.2498H146.722C147.287 14.2498 147.766 14.3989 148.158 14.697C148.487 14.9324 148.84 15.3089 149.217 15.8267C149.39 16.0621 149.499 16.2347 149.547 16.3445L148.323 16.7681C148.229 16.5641 148.064 16.3445 147.828 16.1091C147.593 15.8581 147.381 15.6776 147.193 15.5678C147.083 15.505 146.95 15.4737 146.793 15.4737H144.298C144.126 15.4737 143.984 15.505 143.874 15.5678C143.435 15.8189 143.098 16.164 142.862 16.6034C142.815 16.6975 142.792 16.8309 142.792 17.0035V17.7095C142.792 17.9449 142.878 18.141 143.051 18.2979C143.223 18.4548 143.435 18.549 143.686 18.5804L147.57 18.8863C148.15 18.9334 148.637 19.1609 149.029 19.5689C149.421 19.9768 149.617 20.4632 149.617 21.0281V21.8753ZM154.249 24.4878H152.978V14.3675H154.249V24.4878ZM154.508 12.061H152.719V10.2488H154.508V12.061ZM165.545 21.7812C165.545 22.2833 165.435 22.6991 165.216 23.0286C164.839 23.5464 164.486 23.9229 164.156 24.1583C163.764 24.4564 163.278 24.6055 162.697 24.6055H160.344C159.763 24.6055 159.277 24.4564 158.884 24.1583C158.555 23.9229 158.202 23.5464 157.825 23.0286C157.606 22.6991 157.496 22.2833 157.496 21.7812V17.0741C157.496 16.572 157.606 16.1562 157.825 15.8267C158.202 15.3089 158.555 14.9324 158.884 14.697C159.277 14.3989 159.763 14.2498 160.344 14.2498H162.697C163.278 14.2498 163.764 14.3989 164.156 14.697C164.486 14.9324 164.839 15.3089 165.216 15.8267C165.435 16.1562 165.545 16.572 165.545 17.0741V21.7812ZM164.274 21.7341V17.1212C164.274 16.9172 164.258 16.7838 164.227 16.7211C163.96 16.2347 163.584 15.8502 163.097 15.5678C162.988 15.505 162.846 15.4737 162.674 15.4737H160.367C160.195 15.4737 160.053 15.505 159.944 15.5678C159.473 15.8345 159.104 16.219 158.837 16.7211C158.79 16.8152 158.767 16.9486 158.767 17.1212V21.7341C158.767 21.9067 158.79 22.0401 158.837 22.1342C159.104 22.6363 159.473 23.0207 159.944 23.2875C160.053 23.3502 160.195 23.3816 160.367 23.3816H162.674C162.846 23.3816 162.988 23.3502 163.097 23.2875C163.584 23.0051 163.96 22.6206 164.227 22.1342C164.258 22.0715 164.274 21.9381 164.274 21.7341ZM176.788 24.4878H175.517V17.1212C175.517 16.9172 175.501 16.7838 175.47 16.7211C175.203 16.2347 174.826 15.8502 174.34 15.5678C174.23 15.505 174.089 15.4737 173.916 15.4737H172.245C172.12 15.4737 172.01 15.4972 171.916 15.5443C171.037 16.015 170.449 16.4857 170.15 16.9564V24.4878H168.88V16.0385L168.715 14.3675H169.986L170.127 15.5443C170.441 15.1991 170.731 14.9324 170.998 14.7441C171.453 14.4146 171.845 14.2498 172.175 14.2498H173.94C174.52 14.2498 175.007 14.3989 175.399 14.697C175.728 14.9324 176.081 15.3089 176.458 15.8267C176.678 16.1562 176.788 16.572 176.788 17.0741V24.4878Z" fill="#333333"/>
</svg>
