<svg width="161" height="29" viewBox="0 0 161 29" fill="none" xmlns="http://www.w3.org/2000/svg">
<path d="M27.5785 15.474C27.3752 16.1735 27.214 16.9044 27.0534 17.521C26.7459 18.701 26.2076 19.8337 25.3744 20.7244C23.745 22.4665 21.3649 21.8447 19.3823 22.7614C16.9237 23.8984 15.4564 26.8657 12.5717 27.158C10.4794 27.37 8.36844 26.3745 6.67274 25.2229C-6.54605 16.2454 5.49873 -4.31732 19.8349 2.27828C20.8281 2.27828 21.2762 2.84947 22.2053 3.66614C22.6357 4.04453 22.0924 3.64883 22.7698 4.10017C13.3796 -3.49818 -0.789822 4.4663 1.23817 16.67C1.48072 18.1297 2.04214 19.4045 2.72182 20.7095C6.89763 28.7274 17.5058 30.2583 23.6953 23.9817C24.8312 22.8299 25.8525 21.6881 26.4948 20.1904C27.1365 18.6941 27.5773 17.1192 27.5785 15.474Z" fill="white"/>
<path fill-rule="evenodd" clip-rule="evenodd" d="M14.4199 1.38002C7.21964 1.38002 1.38267 7.21454 1.38267 14.4118C1.38267 21.6091 7.21964 27.4436 14.4199 27.4436C21.6202 27.4436 27.4572 21.6091 27.4572 14.4118C27.4572 7.21454 21.6202 1.38002 14.4199 1.38002ZM0.874023 14.4118C0.874023 6.93374 6.93872 0.871582 14.4199 0.871582C21.9011 0.871582 27.9658 6.93374 27.9658 14.4118C27.9658 21.8899 21.9011 27.9521 14.4199 27.9521C6.93872 27.9521 0.874023 21.8899 0.874023 14.4118Z" fill="white"/>
<path d="M24.7176 13.9938C26.9304 13.9938 28.7242 12.2007 28.7242 9.98885C28.7242 7.77697 26.9304 5.98389 24.7176 5.98389C22.5048 5.98389 20.7109 7.77697 20.7109 9.98885C20.7109 12.2007 22.5048 13.9938 24.7176 13.9938Z" fill="#201F23"/>
<path fill-rule="evenodd" clip-rule="evenodd" d="M24.7099 6.49343C22.778 6.49343 21.2119 8.05888 21.2119 9.98996C21.2119 11.921 22.778 13.4865 24.7099 13.4865C26.6418 13.4865 28.2079 11.921 28.2079 9.98996C28.2079 8.05888 26.6418 6.49343 24.7099 6.49343ZM20.1946 9.98996C20.1946 7.49728 22.2161 5.47656 24.7099 5.47656C27.2036 5.47656 29.2252 7.49728 29.2252 9.98996C29.2252 12.4826 27.2036 14.5034 24.7099 14.5034C22.2161 14.5034 20.1946 12.4826 20.1946 9.98996Z" fill="white"/>
<path d="M45.5489 12.7782C45.5489 13.1737 45.45 13.5165 45.2522 13.8066C45.1863 13.9121 45.0347 14.0835 44.7973 14.3209C44.56 14.5582 44.3754 14.7296 44.2435 14.8351C43.9139 15.0856 43.5249 15.2109 43.0766 15.2109H38.8836V20.4521H37.7365V8.58515H43.0766C43.5249 8.58515 43.9139 8.71041 44.2435 8.96094C44.3754 9.06642 44.56 9.24443 44.7973 9.49495C45.0347 9.73229 45.1863 9.9037 45.2522 10.0092C45.45 10.2993 45.5489 10.6421 45.5489 11.0377V12.7782ZM44.4018 12.7386V11.0772C44.4018 10.9058 44.3886 10.7937 44.3622 10.741C44.2699 10.5696 44.1249 10.385 43.9271 10.1872C43.7293 9.98941 43.5513 9.84437 43.3931 9.75207C43.3271 9.71251 43.2151 9.69274 43.0568 9.69274H38.8836V14.1033H43.0568C43.1887 14.1033 43.3008 14.0769 43.3931 14.0242C43.5645 13.9319 43.7491 13.7934 43.9469 13.6088C44.1447 13.4111 44.2831 13.2331 44.3622 13.0748C44.3886 13.0221 44.4018 12.91 44.4018 12.7386ZM54.577 20.4521H53.5089L53.3309 19.4632C53.0936 19.7138 52.8431 19.9379 52.5793 20.1357C52.197 20.4126 51.8739 20.551 51.6102 20.551H49.8697C49.395 20.551 48.9929 20.4258 48.6632 20.1753C48.3204 19.8852 48.0303 19.5753 47.793 19.2457C47.5952 18.9556 47.4963 18.6062 47.4963 18.1974V17.8019C47.4963 17.4063 47.5952 17.0569 47.793 16.7536C48.0303 16.424 48.3204 16.1141 48.6632 15.824C48.9929 15.5735 49.395 15.4482 49.8697 15.4482H53.3111V14.2418C53.3111 14.1099 53.298 14.0044 53.2716 13.9253C53.0474 13.5165 52.731 13.1935 52.3222 12.9562C52.2299 12.9034 52.1113 12.877 51.9662 12.877H50.107C49.9752 12.877 49.8631 12.9034 49.7708 12.9562C49.4412 13.1408 49.1247 13.4704 48.8215 13.9451L47.793 13.6088C47.9248 13.3979 48.0237 13.2462 48.0897 13.1539C48.3402 12.7847 48.6369 12.4683 48.9797 12.2046C49.2961 11.9672 49.6917 11.8486 50.1664 11.8486H51.986C52.4739 11.8486 52.8826 11.9738 53.2122 12.2244C53.4628 12.3826 53.7594 12.6924 54.1023 13.1539C54.2869 13.4045 54.3792 13.7605 54.3792 14.222V19.0479L54.577 20.4521ZM51.8278 19.4632C52.0519 19.3446 52.3222 19.1666 52.6387 18.9292C52.9683 18.6919 53.1925 18.4677 53.3111 18.2568V16.4569H49.8895C49.7444 16.4569 49.6258 16.4833 49.5335 16.536C49.1511 16.747 48.8478 17.0635 48.6237 17.4854C48.5841 17.5645 48.5643 17.67 48.5643 17.8019V18.1974C48.5643 18.3293 48.5841 18.4348 48.6237 18.5139C48.8346 18.9094 49.1379 19.2193 49.5335 19.4435C49.6258 19.4962 49.7444 19.5226 49.8895 19.5226H51.5509C51.6564 19.5226 51.7487 19.5028 51.8278 19.4632ZM58.547 20.4521H57.479C57.4658 20.373 57.4328 20.2016 57.3801 19.9379C57.3273 19.6742 57.301 19.4764 57.301 19.3446V8.58515H58.369V19.1072C58.369 19.2654 58.3954 19.5028 58.4481 19.8192C58.5008 20.1357 58.5338 20.3467 58.547 20.4521ZM67.8462 20.4521H66.7782L66.6002 19.4632C66.3628 19.7138 66.1123 19.9379 65.8486 20.1357C65.4662 20.4126 65.1432 20.551 64.8795 20.551H63.139C62.6643 20.551 62.2621 20.4258 61.9325 20.1753C61.5897 19.8852 61.2996 19.5753 61.0622 19.2457C60.8645 18.9556 60.7656 18.6062 60.7656 18.1974V17.8019C60.7656 17.4063 60.8645 17.0569 61.0622 16.7536C61.2996 16.424 61.5897 16.1141 61.9325 15.824C62.2621 15.5735 62.6643 15.4482 63.139 15.4482H66.5804V14.2418C66.5804 14.1099 66.5672 14.0044 66.5408 13.9253C66.3167 13.5165 66.0002 13.1935 65.5915 12.9562C65.4992 12.9034 65.3805 12.877 65.2355 12.877H63.3763C63.2444 12.877 63.1324 12.9034 63.0401 12.9562C62.7104 13.1408 62.394 13.4704 62.0907 13.9451L61.0622 13.6088C61.1941 13.3979 61.293 13.2462 61.3589 13.1539C61.6094 12.7847 61.9061 12.4683 62.2489 12.2046C62.5654 11.9672 62.961 11.8486 63.4356 11.8486H65.2552C65.7431 11.8486 66.1519 11.9738 66.4815 12.2244C66.732 12.3826 67.0287 12.6924 67.3715 13.1539C67.5561 13.4045 67.6484 13.7605 67.6484 14.222V19.0479L67.8462 20.4521ZM65.097 19.4632C65.3212 19.3446 65.5915 19.1666 65.9079 18.9292C66.2376 18.6919 66.4617 18.4677 66.5804 18.2568V16.4569H63.1587C63.0137 16.4569 62.895 16.4833 62.8027 16.536C62.4203 16.747 62.1171 17.0635 61.8929 17.4854C61.8534 17.5645 61.8336 17.67 61.8336 17.8019V18.1974C61.8336 18.3293 61.8534 18.4348 61.8929 18.5139C62.1039 18.9094 62.4072 19.2193 62.8027 19.4435C62.895 19.4962 63.0137 19.5226 63.1587 19.5226H64.8201C64.9256 19.5226 65.0179 19.5028 65.097 19.4632ZM74.9412 12.9759H72.3305V18.0392C72.3305 18.2106 72.3503 18.3359 72.3898 18.415C72.6008 18.8237 72.8975 19.1336 73.2798 19.3446C73.3721 19.3973 73.504 19.4237 73.6754 19.4237H74.9214V20.4521H73.6556C73.181 20.4521 72.7788 20.3269 72.4492 20.0764C72.1723 19.8786 71.8756 19.5621 71.5591 19.127C71.3613 18.8369 71.2625 18.4875 71.2625 18.0787V12.9759H69.8582V11.9475H71.2625V8.58515H72.3305V11.9475H74.9412V12.9759ZM78.4403 20.4521H77.3722V11.9475H78.4403V20.4521ZM78.6578 10.0092H77.1547V8.48626H78.6578V10.0092ZM88.0518 20.4521H86.9837V14.2615C86.9837 14.0901 86.9706 13.978 86.9442 13.9253C86.72 13.5165 86.4036 13.1935 85.9948 12.9562C85.9025 12.9034 85.7839 12.877 85.6388 12.877H84.2346C84.1291 12.877 84.0368 12.8968 83.9577 12.9364C83.2193 13.3319 82.7248 13.7275 82.4743 14.1231V20.4521H81.4063V13.3517L81.2678 11.9475H82.3358L82.4545 12.9364C82.7182 12.6463 82.9622 12.4221 83.1863 12.2639C83.5687 11.987 83.8983 11.8486 84.1752 11.8486H85.6586C86.1465 11.8486 86.5552 11.9738 86.8849 12.2244C87.1618 12.4221 87.4584 12.7386 87.7749 13.1737C87.9595 13.4506 88.0518 13.8 88.0518 14.222V20.4521ZM96.4268 18.4743L96.4466 18.4348L97.4949 18.7908C97.4685 18.8435 97.3762 18.9886 97.218 19.2259C96.9015 19.661 96.6048 19.9775 96.3279 20.1753C95.9983 20.4258 95.5961 20.551 95.1215 20.551H93.1041C92.6162 20.551 92.2075 20.4258 91.8778 20.1753C91.6009 19.9775 91.3042 19.661 90.9878 19.2259C90.79 18.9358 90.6911 18.5864 90.6911 18.1776V14.222C90.6911 13.8132 90.79 13.4638 90.9878 13.1737C91.3042 12.7386 91.6009 12.4221 91.8778 12.2244C92.2075 11.9738 92.6162 11.8486 93.1041 11.8486H95.0819C95.5698 11.8486 95.9785 11.9738 96.3082 12.2244C96.5851 12.4221 96.8817 12.7386 97.1982 13.1737C97.3828 13.4506 97.4751 13.8 97.4751 14.222V16.6547H91.7591V18.1381C91.7591 18.2831 91.7789 18.3952 91.8185 18.4743C92.0426 18.8963 92.3525 19.2193 92.7481 19.4435C92.8404 19.4962 92.9524 19.5226 93.0843 19.5226H95.161C95.3061 19.5226 95.4247 19.4962 95.517 19.4435C95.8862 19.2325 96.1895 18.9094 96.4268 18.4743ZM91.8185 13.9253C91.7789 14.0044 91.7591 14.1165 91.7591 14.2615V15.646H96.4071V14.2615C96.4071 14.0901 96.3939 13.978 96.3675 13.9253C96.1433 13.5165 95.8269 13.1935 95.4181 12.9562C95.3258 12.9034 95.2072 12.877 95.0621 12.877H93.1041C92.9722 12.877 92.8601 12.9034 92.7678 12.9562C92.3591 13.1935 92.0426 13.5165 91.8185 13.9253ZM113.026 8.58515L109.268 20.4521H107.488L103.71 8.58515H104.917L108.239 19.2259H108.516L111.819 8.58515H113.026ZM116.239 20.4521H115.171V11.9475H116.239V20.4521ZM116.457 10.0092H114.954V8.48626H116.457V10.0092ZM125.732 18.2568C125.732 18.6655 125.633 19.0149 125.435 19.305C125.145 19.7138 124.875 20.0038 124.625 20.1753C124.295 20.4258 123.893 20.551 123.418 20.551H121.045C120.57 20.551 120.168 20.4258 119.838 20.1753C119.574 19.9775 119.284 19.6676 118.968 19.2457C118.797 18.9688 118.704 18.8171 118.691 18.7908L119.72 18.4348C119.93 18.8699 120.24 19.2061 120.649 19.4435C120.741 19.4962 120.86 19.5226 121.005 19.5226H123.398C123.53 19.5226 123.642 19.4962 123.735 19.4435C124.117 19.2325 124.407 18.9358 124.605 18.5534C124.644 18.4743 124.664 18.3622 124.664 18.2172V17.5052C124.664 17.3074 124.592 17.1426 124.447 17.0107C124.302 16.8789 124.123 16.7997 123.913 16.7734L120.649 16.536C120.161 16.4965 119.752 16.3053 119.423 15.9625C119.093 15.6196 118.928 15.2109 118.928 14.7362V14.1429C118.928 13.7341 119.027 13.3847 119.225 13.0946C119.515 12.6859 119.785 12.3958 120.036 12.2244C120.366 11.9738 120.768 11.8486 121.242 11.8486H123.299C123.774 11.8486 124.176 11.9738 124.506 12.2244C124.783 12.4221 125.079 12.7386 125.396 13.1737C125.541 13.3715 125.633 13.5165 125.673 13.6088L124.644 13.9649C124.565 13.7934 124.427 13.6088 124.229 13.4111C124.031 13.2001 123.853 13.0485 123.695 12.9562C123.603 12.9034 123.491 12.877 123.359 12.877H121.262C121.117 12.877 120.999 12.9034 120.906 12.9562C120.537 13.1671 120.254 13.4572 120.056 13.8264C120.016 13.9055 119.996 14.0176 119.996 14.1626V14.756C119.996 14.9538 120.069 15.1186 120.214 15.2504C120.359 15.3823 120.537 15.4614 120.748 15.4878L124.011 15.7449C124.499 15.7845 124.908 15.9757 125.238 16.3185C125.567 16.6613 125.732 17.0701 125.732 17.5447V18.2568ZM129.624 20.4521H128.556V11.9475H129.624V20.4521ZM129.842 10.0092H128.339V8.48626H129.842V10.0092ZM139.117 18.1776C139.117 18.5996 139.025 18.949 138.84 19.2259C138.524 19.661 138.227 19.9775 137.95 20.1753C137.621 20.4258 137.212 20.551 136.724 20.551H134.746C134.258 20.551 133.85 20.4258 133.52 20.1753C133.243 19.9775 132.946 19.661 132.63 19.2259C132.445 18.949 132.353 18.5996 132.353 18.1776V14.222C132.353 13.8 132.445 13.4506 132.63 13.1737C132.946 12.7386 133.243 12.4221 133.52 12.2244C133.85 11.9738 134.258 11.8486 134.746 11.8486H136.724C137.212 11.8486 137.621 11.9738 137.95 12.2244C138.227 12.4221 138.524 12.7386 138.84 13.1737C139.025 13.4506 139.117 13.8 139.117 14.222V18.1776ZM138.049 18.1381V14.2615C138.049 14.0901 138.036 13.978 138.01 13.9253C137.786 13.5165 137.469 13.1935 137.06 12.9562C136.968 12.9034 136.849 12.877 136.704 12.877H134.766C134.621 12.877 134.502 12.9034 134.41 12.9562C134.014 13.1803 133.705 13.5034 133.48 13.9253C133.441 14.0044 133.421 14.1165 133.421 14.2615V18.1381C133.421 18.2831 133.441 18.3952 133.48 18.4743C133.705 18.8963 134.014 19.2193 134.41 19.4435C134.502 19.4962 134.621 19.5226 134.766 19.5226H136.704C136.849 19.5226 136.968 19.4962 137.06 19.4435C137.469 19.2061 137.786 18.8831 138.01 18.4743C138.036 18.4216 138.049 18.3095 138.049 18.1381ZM148.565 20.4521H147.497V14.2615C147.497 14.0901 147.484 13.978 147.457 13.9253C147.233 13.5165 146.917 13.1935 146.508 12.9562C146.416 12.9034 146.297 12.877 146.152 12.877H144.748C144.642 12.877 144.55 12.8968 144.471 12.9364C143.732 13.3319 143.238 13.7275 142.987 14.1231V20.4521H141.919V13.3517L141.781 11.9475H142.849L142.968 12.9364C143.231 12.6463 143.475 12.4221 143.7 12.2639C144.082 11.987 144.412 11.8486 144.688 11.8486H146.172C146.66 11.8486 147.068 11.9738 147.398 12.2244C147.675 12.4221 147.972 12.7386 148.288 13.1737C148.473 13.4506 148.565 13.8 148.565 14.222V20.4521Z" fill="white"/>
</svg>
